<mxfile host="app.diagrams.net" modified="2024-01-17T11:38:10.166Z" agent="Mozilla/5.0 (X11; Linux x86_64) AppleWebKit/537.36 (KHTML, like Gecko) Chrome/115.0.0.0 Safari/537.36" etag="3wCy_wr0InvoLyjPZcAF" version="22.1.20" type="github">
  <diagram name="Page-1" id="c8XQt7IUAnuW5r2s-ESq">
    <mxGraphModel dx="1434" dy="837" grid="1" gridSize="10" guides="1" tooltips="1" connect="1" arrows="1" fold="1" page="1" pageScale="1" pageWidth="827" pageHeight="1169" math="0" shadow="0">
      <root>
        <mxCell id="0" />
        <mxCell id="1" parent="0" />
        <mxCell id="Eic-0XZtid4H7A1LpICv-1" value="/v5/save" style="rounded=1;whiteSpace=wrap;html=1;" vertex="1" parent="1">
          <mxGeometry x="326.25" y="60" width="160" height="70" as="geometry" />
        </mxCell>
        <mxCell id="Eic-0XZtid4H7A1LpICv-6" value="Basic" style="text;html=1;strokeColor=none;fillColor=none;align=center;verticalAlign=middle;whiteSpace=wrap;rounded=0;" vertex="1" parent="1">
          <mxGeometry x="220" y="170" width="60" height="30" as="geometry" />
        </mxCell>
        <mxCell id="Eic-0XZtid4H7A1LpICv-7" value="Premium" style="text;html=1;strokeColor=none;fillColor=none;align=center;verticalAlign=middle;whiteSpace=wrap;rounded=0;" vertex="1" parent="1">
          <mxGeometry x="540" y="170" width="60" height="30" as="geometry" />
        </mxCell>
        <mxCell id="Eic-0XZtid4H7A1LpICv-8" value="Normal Flow" style="rounded=1;whiteSpace=wrap;html=1;" vertex="1" parent="1">
          <mxGeometry x="100" y="250" width="120" height="60" as="geometry" />
        </mxCell>
        <mxCell id="Eic-0XZtid4H7A1LpICv-9" value="Premium flow" style="rounded=1;whiteSpace=wrap;html=1;" vertex="1" parent="1">
          <mxGeometry x="590" y="250" width="120" height="60" as="geometry" />
        </mxCell>
        <mxCell id="Eic-0XZtid4H7A1LpICv-18" value="&lt;ul&gt;&lt;li&gt;Under review&lt;/li&gt;&lt;li&gt;Credits hold&lt;/li&gt;&lt;li&gt;job to moderator&lt;/li&gt;&lt;/ul&gt;" style="rounded=1;whiteSpace=wrap;html=1;align=left;" vertex="1" parent="1">
          <mxGeometry x="650" y="565" width="140" height="100" as="geometry" />
        </mxCell>
        <mxCell id="Eic-0XZtid4H7A1LpICv-22" value="sufficient credits" style="rhombus;whiteSpace=wrap;html=1;" vertex="1" parent="1">
          <mxGeometry x="827" y="380" width="150" height="80" as="geometry" />
        </mxCell>
        <mxCell id="Eic-0XZtid4H7A1LpICv-23" value="" style="endArrow=classic;html=1;rounded=0;exitX=0.5;exitY=1;exitDx=0;exitDy=0;entryX=0.5;entryY=0;entryDx=0;entryDy=0;" edge="1" parent="1" source="Eic-0XZtid4H7A1LpICv-1" target="Eic-0XZtid4H7A1LpICv-8">
          <mxGeometry width="50" height="50" relative="1" as="geometry">
            <mxPoint x="389" y="270" as="sourcePoint" />
            <mxPoint x="439" y="220" as="targetPoint" />
          </mxGeometry>
        </mxCell>
        <mxCell id="Eic-0XZtid4H7A1LpICv-24" value="" style="endArrow=classic;html=1;rounded=0;exitX=0.492;exitY=1.1;exitDx=0;exitDy=0;exitPerimeter=0;entryX=0.5;entryY=0;entryDx=0;entryDy=0;" edge="1" parent="1" source="Eic-0XZtid4H7A1LpICv-1" target="Eic-0XZtid4H7A1LpICv-9">
          <mxGeometry width="50" height="50" relative="1" as="geometry">
            <mxPoint x="460" y="270" as="sourcePoint" />
            <mxPoint x="510" y="220" as="targetPoint" />
          </mxGeometry>
        </mxCell>
        <mxCell id="Eic-0XZtid4H7A1LpICv-25" value="insufficient credits" style="rhombus;whiteSpace=wrap;html=1;" vertex="1" parent="1">
          <mxGeometry x="180" y="390" width="150" height="80" as="geometry" />
        </mxCell>
        <mxCell id="Eic-0XZtid4H7A1LpICv-26" value="" style="endArrow=classic;html=1;rounded=0;entryX=0.5;entryY=0;entryDx=0;entryDy=0;exitX=0.5;exitY=1;exitDx=0;exitDy=0;" edge="1" parent="1" source="Eic-0XZtid4H7A1LpICv-9" target="Eic-0XZtid4H7A1LpICv-25">
          <mxGeometry width="50" height="50" relative="1" as="geometry">
            <mxPoint x="540" y="430" as="sourcePoint" />
            <mxPoint x="590" y="380" as="targetPoint" />
          </mxGeometry>
        </mxCell>
        <mxCell id="Eic-0XZtid4H7A1LpICv-27" value="" style="endArrow=classic;html=1;rounded=0;entryX=0.5;entryY=0;entryDx=0;entryDy=0;exitX=0.5;exitY=1;exitDx=0;exitDy=0;" edge="1" parent="1" source="Eic-0XZtid4H7A1LpICv-9" target="Eic-0XZtid4H7A1LpICv-22">
          <mxGeometry width="50" height="50" relative="1" as="geometry">
            <mxPoint x="380" y="510" as="sourcePoint" />
            <mxPoint x="430" y="460" as="targetPoint" />
          </mxGeometry>
        </mxCell>
        <mxCell id="Eic-0XZtid4H7A1LpICv-28" value="&lt;ul&gt;&lt;li&gt;AutoLive&lt;/li&gt;&lt;li&gt;credits detucted&lt;/li&gt;&lt;/ul&gt;" style="rounded=1;whiteSpace=wrap;html=1;align=left;" vertex="1" parent="1">
          <mxGeometry x="840" y="560" width="143" height="110" as="geometry" />
        </mxCell>
        <mxCell id="Eic-0XZtid4H7A1LpICv-29" value="&lt;ul&gt;&lt;li&gt;Auto Rejected&lt;/li&gt;&lt;li&gt;credits no change&lt;/li&gt;&lt;/ul&gt;" style="rounded=1;whiteSpace=wrap;html=1;align=left;" vertex="1" parent="1">
          <mxGeometry x="1030" y="565" width="150" height="90" as="geometry" />
        </mxCell>
        <mxCell id="Eic-0XZtid4H7A1LpICv-32" value="" style="endArrow=classic;html=1;rounded=0;" edge="1" parent="1">
          <mxGeometry width="50" height="50" relative="1" as="geometry">
            <mxPoint x="840" y="250" as="sourcePoint" />
            <mxPoint x="890" y="200" as="targetPoint" />
          </mxGeometry>
        </mxCell>
        <mxCell id="Eic-0XZtid4H7A1LpICv-33" value="" style="endArrow=classic;html=1;rounded=0;" edge="1" parent="1">
          <mxGeometry width="50" height="50" relative="1" as="geometry">
            <mxPoint x="850" y="260" as="sourcePoint" />
            <mxPoint x="900" y="210" as="targetPoint" />
          </mxGeometry>
        </mxCell>
        <mxCell id="Eic-0XZtid4H7A1LpICv-34" value="" style="endArrow=classic;html=1;rounded=0;" edge="1" parent="1">
          <mxGeometry width="50" height="50" relative="1" as="geometry">
            <mxPoint x="860" y="270" as="sourcePoint" />
            <mxPoint x="910" y="220" as="targetPoint" />
          </mxGeometry>
        </mxCell>
        <mxCell id="Eic-0XZtid4H7A1LpICv-35" value="" style="endArrow=classic;html=1;rounded=0;entryX=0.5;entryY=0;entryDx=0;entryDy=0;exitX=1;exitY=0.5;exitDx=0;exitDy=0;" edge="1" parent="1" source="Eic-0XZtid4H7A1LpICv-41" target="Eic-0XZtid4H7A1LpICv-43">
          <mxGeometry width="50" height="50" relative="1" as="geometry">
            <mxPoint x="790" y="750" as="sourcePoint" />
            <mxPoint x="1020" y="725" as="targetPoint" />
          </mxGeometry>
        </mxCell>
        <mxCell id="Eic-0XZtid4H7A1LpICv-36" value="" style="endArrow=classic;html=1;rounded=0;entryX=0.5;entryY=0;entryDx=0;entryDy=0;exitX=0.5;exitY=1;exitDx=0;exitDy=0;" edge="1" parent="1" source="Eic-0XZtid4H7A1LpICv-41" target="Eic-0XZtid4H7A1LpICv-42">
          <mxGeometry width="50" height="50" relative="1" as="geometry">
            <mxPoint x="490" y="820" as="sourcePoint" />
            <mxPoint x="540" y="770" as="targetPoint" />
          </mxGeometry>
        </mxCell>
        <mxCell id="Eic-0XZtid4H7A1LpICv-37" value="" style="endArrow=classic;html=1;rounded=0;entryX=0.5;entryY=0;entryDx=0;entryDy=0;exitX=0.5;exitY=1;exitDx=0;exitDy=0;" edge="1" parent="1" source="Eic-0XZtid4H7A1LpICv-18" target="Eic-0XZtid4H7A1LpICv-41">
          <mxGeometry width="50" height="50" relative="1" as="geometry">
            <mxPoint x="545" y="780" as="sourcePoint" />
            <mxPoint x="595" y="730" as="targetPoint" />
          </mxGeometry>
        </mxCell>
        <mxCell id="Eic-0XZtid4H7A1LpICv-38" value="" style="endArrow=classic;html=1;rounded=0;entryX=0.5;entryY=0;entryDx=0;entryDy=0;exitX=1;exitY=1;exitDx=0;exitDy=0;" edge="1" parent="1" source="Eic-0XZtid4H7A1LpICv-22" target="Eic-0XZtid4H7A1LpICv-29">
          <mxGeometry width="50" height="50" relative="1" as="geometry">
            <mxPoint x="900" y="310" as="sourcePoint" />
            <mxPoint x="950" y="260" as="targetPoint" />
          </mxGeometry>
        </mxCell>
        <mxCell id="Eic-0XZtid4H7A1LpICv-39" value="" style="endArrow=classic;html=1;rounded=0;exitX=0.5;exitY=1;exitDx=0;exitDy=0;" edge="1" parent="1" source="Eic-0XZtid4H7A1LpICv-22" target="Eic-0XZtid4H7A1LpICv-28">
          <mxGeometry width="50" height="50" relative="1" as="geometry">
            <mxPoint x="910" y="510" as="sourcePoint" />
            <mxPoint x="960" y="270" as="targetPoint" />
          </mxGeometry>
        </mxCell>
        <mxCell id="Eic-0XZtid4H7A1LpICv-40" value="" style="endArrow=classic;html=1;rounded=0;entryX=0.5;entryY=0;entryDx=0;entryDy=0;" edge="1" parent="1" source="Eic-0XZtid4H7A1LpICv-22" target="Eic-0XZtid4H7A1LpICv-18">
          <mxGeometry width="50" height="50" relative="1" as="geometry">
            <mxPoint x="660" y="540" as="sourcePoint" />
            <mxPoint x="710" y="490" as="targetPoint" />
          </mxGeometry>
        </mxCell>
        <mxCell id="Eic-0XZtid4H7A1LpICv-41" value="CRM" style="rhombus;whiteSpace=wrap;html=1;" vertex="1" parent="1">
          <mxGeometry x="780" y="710" width="130" height="80" as="geometry" />
        </mxCell>
        <mxCell id="Eic-0XZtid4H7A1LpICv-42" value="&lt;ul&gt;&lt;li&gt;Live&lt;/li&gt;&lt;li&gt;Credits hold to moved to consumed&lt;/li&gt;&lt;/ul&gt;" style="rounded=1;whiteSpace=wrap;html=1;align=left;" vertex="1" parent="1">
          <mxGeometry x="710" y="840" width="140" height="100" as="geometry" />
        </mxCell>
        <mxCell id="Eic-0XZtid4H7A1LpICv-43" value="&lt;ul&gt;&lt;li&gt;Rejected&lt;/li&gt;&lt;li&gt;Credits hold to be moved back to credits active&lt;/li&gt;&lt;/ul&gt;" style="rounded=1;whiteSpace=wrap;html=1;align=left;" vertex="1" parent="1">
          <mxGeometry x="910" y="840" width="140" height="100" as="geometry" />
        </mxCell>
      </root>
    </mxGraphModel>
  </diagram>
</mxfile>
